<svg width="56" height="56" fill="none" xmlns="http://www.w3.org/2000/svg"><path d="M28 5.046c7.48 0 8.359.034 11.316.167 2.734.122 4.212.578 5.202.967 1.311.512 2.245 1.112 3.223 2.09.978.978 1.59 1.912 2.09 3.223.378.99.845 2.468.967 5.202.133 2.957.167 3.835.167 11.316 0 7.48-.034 8.359-.167 11.316-.122 2.734-.578 4.212-.967 5.202-.511 1.311-1.112 2.245-2.09 3.223-.978.978-1.912 1.59-3.223 2.09-.99.378-2.468.845-5.202.967-2.957.133-3.835.167-11.316.167-7.48 0-8.359-.034-11.316-.167-2.734-.122-4.212-.578-5.202-.967-1.311-.511-2.245-1.112-3.223-2.09-.978-.978-1.59-1.912-2.09-3.223-.378-.99-.845-2.468-.967-5.202-.133-2.957-.167-3.835-.167-11.316 0-7.48.034-8.359.167-11.316.122-2.734.578-4.212.967-5.202.511-1.311 1.112-2.245 2.09-3.223.978-.978 1.912-1.59 3.223-2.09.99-.378 2.468-.845 5.202-.967C19.641 5.07 20.53 5.046 28 5.046zM28 0c-7.603 0-8.559.033-11.549.167-2.979.133-5.013.611-6.792 1.3-1.845.712-3.401 1.679-4.957 3.235C3.146 6.258 2.19 7.825 1.467 9.659.778 11.438.3 13.472.167 16.462.033 19.441 0 20.397 0 28s.033 8.559.167 11.549c.133 2.979.611 5.013 1.3 6.803.712 1.845 1.679 3.401 3.235 4.957 1.556 1.556 3.123 2.512 4.957 3.235 1.779.689 3.813 1.167 6.803 1.3 2.99.134 3.935.167 11.55.167 7.613 0 8.558-.033 11.548-.167 2.98-.133 5.013-.611 6.803-1.3 1.845-.711 3.401-1.679 4.957-3.235 1.557-1.556 2.513-3.123 3.235-4.957.69-1.779 1.167-3.813 1.3-6.803.134-2.99.167-3.935.167-11.549 0-7.614-.033-8.559-.166-11.549-.134-2.979-.612-5.013-1.301-6.803-.711-1.845-1.678-3.401-3.235-4.957-1.556-1.556-3.123-2.512-4.957-3.235C44.584.767 42.55.29 39.56.156 36.56.033 35.603 0 28 0z" fill="#fff"/><path d="M28 5.046c7.48 0 8.359.034 11.316.167 2.734.122 4.212.578 5.202.967 1.311.512 2.245 1.112 3.223 2.09.978.978 1.59 1.912 2.09 3.223.378.99.845 2.468.967 5.202.133 2.957.167 3.835.167 11.316 0 7.48-.034 8.359-.167 11.316-.122 2.734-.578 4.212-.967 5.202-.511 1.311-1.112 2.245-2.09 3.223-.978.978-1.912 1.59-3.223 2.09-.99.378-2.468.845-5.202.967-2.957.133-3.835.167-11.316.167-7.48 0-8.359-.034-11.316-.167-2.734-.122-4.212-.578-5.202-.967-1.311-.511-2.245-1.112-3.223-2.09-.978-.978-1.59-1.912-2.09-3.223-.378-.99-.845-2.468-.967-5.202-.133-2.957-.167-3.835-.167-11.316 0-7.48.034-8.359.167-11.316.122-2.734.578-4.212.967-5.202.511-1.311 1.112-2.245 2.09-3.223.978-.978 1.912-1.59 3.223-2.09.99-.378 2.468-.845 5.202-.967C19.641 5.07 20.53 5.046 28 5.046z" fill="#fff"/><path fill-rule="evenodd" clip-rule="evenodd" d="M12.674 27.656c8.163-3.557 13.606-5.901 16.33-7.034 7.775-3.234 9.391-3.796 10.444-3.815.232-.004.75.054 1.085.326.283.23.361.54.399.758.037.218.083.715.046 1.102-.42 4.428-2.244 15.172-3.172 20.131-.392 2.098-1.165 2.802-1.913 2.87-1.626.15-2.861-1.074-4.436-2.106-2.464-1.616-3.857-2.621-6.249-4.198-2.764-1.821-.972-2.823.604-4.459.412-.428 7.576-6.945 7.715-7.536.017-.074.033-.35-.13-.495-.164-.145-.406-.096-.58-.056-.248.056-4.184 2.658-11.81 7.806-1.118.768-2.13 1.142-3.037 1.122-1-.022-2.923-.565-4.353-1.03-1.753-.57-3.147-.872-3.026-1.84.064-.504.758-1.02 2.083-1.546z" fill="#140C1D"/></svg>