<svg width="96" height="96" fill="none" xmlns="http://www.w3.org/2000/svg"><path d="M95.888 3.885c-2.181 7.266-6.447 20.963-11.51 35.213 1.313.398 2.51.75 3.494 1.054a2.95 2.95 0 011.9 1.712 3.01 3.01 0 01-.118 2.578c-4.15 7.922-15.493 28.65-26.718 40.2-.188.21-.376.468-.563.656-14.25 14.274-37.388 14.274-51.657.023-14.274-14.274-14.274-37.406 0-51.693.188-.188.446-.375.657-.563 11.52-11.221 32.22-22.57 40.02-26.72a2.965 2.965 0 012.556-.117 3.025 3.025 0 011.735 1.9c.305.96.656 2.18 1.055 3.492C70.966 6.558 84.657 2.292 91.914.136a3.008 3.008 0 013.024.75c.968.772 1.08 1.943.95 3zM59.83 59.831c0-13.243-10.758-24-24-24-13.265 0-24 10.76-24 24 0 13.268 10.735 24 24 24 13.407.17 24-10.556 24-24zm-24-6c0 3.306-2.694 6-6 6-3.328 0-6-2.696-6-6 0-3.303 2.672-6 6-6a6 6 0 014.244 1.758c1.124 1.125 1.756 2.817 1.756 4.242zm6.15 15a3 3 0 01-2.994 3c-1.664 0-3-1.336-3-3s1.331-3 2.996-3c1.648 0 2.998 1.5 2.998 3z" fill="#330867"/></svg>