<svg width="96" height="96" fill="none" xmlns="http://www.w3.org/2000/svg"><path d="M40.5 19.5A4.513 4.513 0 0036 24c0 2.475 2.016 4.5 4.5 4.5 14.89 0 27 12.11 27 27 0 2.494 2.025 4.5 4.5 4.5s4.5-2.016 4.5-4.5c0-19.856-16.144-36-36-36zM42 0c-3.319 0-6 2.683-6 6s2.687 6 6 6c23.156 0 42 18.844 42 42 0 3.317 2.687 6 6 6s6-2.683 6-6C96 24.225 71.775 0 42 0zm-6.58 64.875l5.132-5.132c.492.117.948.282 1.464.282a5.981 5.981 0 005.998-6 5.997 5.997 0 00-5.998-6.001c-3.304 0-5.998 2.696-5.998 6.002 0 .539.152.984.292 1.476l-5.146 5.136-21.906-21.92c-1.36-1.359-3.772-1.124-4.519.563-7.828 14.603-5.602 33.131 6.703 45.45 12.304 12.304 30.863 14.532 45.45 6.703 1.711-.937 1.947-3.328.563-4.687L35.419 64.875z" fill="#330867"/></svg>