<svg width="96" height="96" fill="none" xmlns="http://www.w3.org/2000/svg"><path d="M29.363 72.169l-5.794-5.963c-1.594-1.425-2.156-3.75-1.613-5.869.563-1.668 1.313-3.843 2.381-6.337H4.5a4.495 4.495 0 01-3.87-6.788l9.838-16.593c2.43-4.107 6.844-6.788 11.62-6.788H37.5c.45-.581.9-1.275 1.35-1.95C54.206-.763 77.081-1.527 90.731.99a5.285 5.285 0 014.275 4.272C97.52 18.92 96.77 41.794 74.12 57.15c-.656.45-1.538.9-2.119 1.181v15.581c0 4.782-2.513 9.188-6.619 11.625l-16.593 9.825a4.524 4.524 0 01-4.52.057A4.52 4.52 0 0142 91.5V71.4c-2.644.9-4.95 1.669-6.694 2.231-2.1.675-4.387.094-5.943-1.462zM72 31.33c4.144 0 7.5-3.187 7.5-7.5 0-3.975-3.356-7.5-7.5-7.5s-7.5 3.525-7.5 7.5c0 4.313 3.356 7.5 7.5 7.5z" fill="#330867"/></svg>