<svg width="90" height="80" fill="none" xmlns="http://www.w3.org/2000/svg"><path d="M89.23 0v13.333h-2.307c-5.47 0-9.829.94-13.077 2.82-3.248 1.881-5.64 4.873-7.18 8.975-1.367 3.932-2.05 8.975-2.05 15.128v19.231L58.461 47.95c1.196-.684 2.735-1.197 4.615-1.539a35.891 35.891 0 015.897-.513c4.787 0 8.718 1.539 11.795 4.616 3.248 2.906 4.872 7.008 4.872 12.308 0 4.957-1.538 9.06-4.615 12.307C78.12 78.376 74.103 80 68.974 80c-3.248 0-6.324-.77-9.23-2.308-2.906-1.538-5.3-4.273-7.18-8.205-1.88-3.931-2.82-9.572-2.82-16.923V47.18c0-12.478 1.538-22.136 4.615-28.974 3.077-6.837 7.436-11.538 13.077-14.102C73.076 1.368 79.744 0 87.436 0h1.795zM39.488 0v13.333H37.18c-5.47 0-9.829.94-13.076 2.82-3.248 1.881-5.642 4.873-7.18 8.975-1.367 3.932-2.051 8.975-2.051 15.128v19.231L8.718 47.95c1.197-.684 2.735-1.197 4.615-1.539a35.891 35.891 0 015.898-.513c4.786 0 8.718 1.539 11.795 4.616 3.247 2.906 4.871 7.008 4.871 12.308 0 4.957-1.538 9.06-4.615 12.307C28.376 78.376 24.359 80 19.231 80c-3.248 0-6.325-.77-9.231-2.308-2.906-1.538-5.3-4.273-7.18-8.205C.94 65.556 0 59.915 0 52.564V47.18c0-12.478 1.538-22.136 4.615-28.974 3.077-6.837 7.436-11.538 13.077-14.102C23.333 1.368 30 0 37.692 0h1.795z" fill="url(#paint0_linear_53_197)" fill-opacity=".1"/><defs><linearGradient id="paint0_linear_53_197" x1="0" y1="40.52" x2="89.231" y2="40.52" gradientUnits="userSpaceOnUse"><stop stop-color="#330867"/><stop offset="1" stop-color="#30CFD0"/></linearGradient></defs></svg>