<svg width="540" height="540" fill="none" xmlns="http://www.w3.org/2000/svg"><g opacity=".1" clip-path="url(#clip0_371_2197)"><path d="M165.164 405.949l-32.59-33.539c-8.965-8.015-12.129-21.094-9.07-33.012 3.164-9.386 7.383-21.621 13.394-35.648H25.312c-9.091 0-17.493-4.852-21.994-12.762a25.272 25.272 0 01.223-25.418l55.342-93.339c13.669-23.098 38.496-38.18 65.359-38.18h86.695c2.532-3.27 5.063-7.172 7.594-10.969C304.91-4.293 433.582-8.588 510.363 5.564c12.34 2.255 21.832 11.764 24.047 24.03 14.133 76.824 9.914 205.496-117.492 291.875-3.692 2.531-8.649 5.062-11.918 6.644v87.645a75.95 75.95 0 01-37.231 65.39l-93.339 55.266c-7.805 4.641-17.508 4.746-25.418.316a25.424 25.424 0 01-12.762-22.042V401.625c-14.871 5.063-27.844 9.387-37.652 12.551-11.813 3.797-24.68.527-33.434-8.227zM405 176.238c23.308 0 42.187-17.929 42.187-42.187 0-22.36-18.879-42.188-42.187-42.188-23.309 0-42.188 19.828-42.188 42.188 0 24.258 18.879 42.187 42.188 42.187z" fill="url(#paint0_linear_371_2197)"/></g><defs><linearGradient id="paint0_linear_371_2197" x1="0" y1="273.494" x2="539.974" y2="273.494" gradientUnits="userSpaceOnUse"><stop stop-color="#330867"/><stop offset="1" stop-color="#30CFD0"/></linearGradient><clipPath id="clip0_371_2197"><path fill="#fff" d="M0 0h540v540H0z"/></clipPath></defs></svg>