<svg width="56" height="56" fill="none" xmlns="http://www.w3.org/2000/svg"><g clip-path="url(#clip0_1_1289)"><g filter="url(#filter0_d_1_1289)" fill="#fff"><path d="M28 5.046c7.48 0 8.359.034 11.316.167 2.734.122 4.212.578 5.202.967 1.311.512 2.245 1.112 3.223 2.09.978.978 1.59 1.912 2.09 3.223.378.99.845 2.468.967 5.202.133 2.957.167 3.835.167 11.316 0 7.48-.034 8.359-.167 11.316-.122 2.734-.578 4.212-.967 5.202-.511 1.311-1.112 2.245-2.09 3.223-.978.978-1.912 1.59-3.223 2.09-.99.378-2.468.845-5.202.967-2.957.133-3.835.167-11.316.167-7.48 0-8.359-.034-11.316-.167-2.734-.122-4.212-.578-5.202-.967-1.311-.511-2.245-1.112-3.223-2.09-.978-.978-1.59-1.912-2.09-3.223-.378-.99-.845-2.468-.967-5.202-.133-2.957-.167-3.835-.167-11.316 0-7.48.034-8.359.167-11.316.122-2.734.578-4.212.967-5.202.511-1.311 1.112-2.245 2.09-3.223.978-.978 1.912-1.59 3.223-2.09.99-.378 2.468-.845 5.202-.967C19.641 5.07 20.53 5.046 28 5.046zM28 0c-7.603 0-8.559.033-11.549.167-2.979.133-5.013.611-6.792 1.3-1.845.712-3.401 1.679-4.957 3.235C3.146 6.258 2.19 7.825 1.467 9.659.778 11.438.3 13.472.167 16.462.033 19.441 0 20.397 0 28s.033 8.559.167 11.549c.133 2.979.611 5.013 1.3 6.803.712 1.845 1.679 3.401 3.235 4.957 1.556 1.556 3.123 2.512 4.957 3.235 1.779.689 3.813 1.167 6.803 1.3 2.99.134 3.935.167 11.55.167 7.613 0 8.558-.033 11.548-.167 2.98-.133 5.013-.611 6.803-1.3 1.845-.711 3.401-1.679 4.957-3.235 1.557-1.556 2.513-3.123 3.235-4.957.69-1.779 1.167-3.813 1.3-6.803.134-2.99.167-3.935.167-11.549 0-7.614-.033-8.559-.166-11.549-.134-2.979-.612-5.013-1.301-6.803-.711-1.845-1.678-3.401-3.235-4.957-1.556-1.556-3.123-2.512-4.957-3.235C44.584.767 42.55.29 39.56.156 36.56.033 35.603 0 28 0z"/><path d="M28 5.046c7.48 0 8.359.034 11.316.167 2.734.122 4.212.578 5.202.967 1.311.512 2.245 1.112 3.223 2.09.978.978 1.59 1.912 2.09 3.223.378.99.845 2.468.967 5.202.133 2.957.167 3.835.167 11.316 0 7.48-.034 8.359-.167 11.316-.122 2.734-.578 4.212-.967 5.202-.511 1.311-1.112 2.245-2.09 3.223-.978.978-1.912 1.59-3.223 2.09-.99.378-2.468.845-5.202.967-2.957.133-3.835.167-11.316.167-7.48 0-8.359-.034-11.316-.167-2.734-.122-4.212-.578-5.202-.967-1.311-.511-2.245-1.112-3.223-2.09-.978-.978-1.59-1.912-2.09-3.223-.378-.99-.845-2.468-.967-5.202-.133-2.957-.167-3.835-.167-11.316 0-7.48.034-8.359.167-11.316.122-2.734.578-4.212.967-5.202.511-1.311 1.112-2.245 2.09-3.223.978-.978 1.912-1.59 3.223-2.09.99-.378 2.468-.845 5.202-.967C19.641 5.07 20.53 5.046 28 5.046z"/></g><g filter="url(#filter1_d_1_1289)"><path d="M28 13.627c-7.936 0-14.383 6.436-14.383 14.384S20.053 42.394 28 42.394c7.948 0 14.384-6.435 14.384-14.383 0-7.948-6.436-14.384-14.384-14.384zm0 23.71A9.336 9.336 0 0118.663 28 9.336 9.336 0 0128 18.663 9.336 9.336 0 0137.337 28 9.336 9.336 0 0128 37.337z" fill="#140C1D"/></g><g filter="url(#filter2_d_1_1289)"><path d="M42.95 16.407a3.357 3.357 0 100-6.714 3.357 3.357 0 000 6.714z" fill="#140C1D"/></g></g><defs><filter id="filter0_d_1_1289" x="-4" y="0" width="64.022" height="64.011" filterUnits="userSpaceOnUse" color-interpolation-filters="sRGB"><feFlood flood-opacity="0" result="BackgroundImageFix"/><feColorMatrix in="SourceAlpha" values="0 0 0 0 0 0 0 0 0 0 0 0 0 0 0 0 0 0 127 0" result="hardAlpha"/><feOffset dy="4"/><feGaussianBlur stdDeviation="2"/><feComposite in2="hardAlpha" operator="out"/><feColorMatrix values="0 0 0 0 0 0 0 0 0 0 0 0 0 0 0 0 0 0 0.25 0"/><feBlend in2="BackgroundImageFix" result="effect1_dropShadow_1_1289"/><feBlend in="SourceGraphic" in2="effect1_dropShadow_1_1289" result="shape"/></filter><filter id="filter1_d_1_1289" x="9.617" y="13.627" width="36.767" height="36.767" filterUnits="userSpaceOnUse" color-interpolation-filters="sRGB"><feFlood flood-opacity="0" result="BackgroundImageFix"/><feColorMatrix in="SourceAlpha" values="0 0 0 0 0 0 0 0 0 0 0 0 0 0 0 0 0 0 127 0" result="hardAlpha"/><feOffset dy="4"/><feGaussianBlur stdDeviation="2"/><feComposite in2="hardAlpha" operator="out"/><feColorMatrix values="0 0 0 0 0 0 0 0 0 0 0 0 0 0 0 0 0 0 0.25 0"/><feBlend in2="BackgroundImageFix" result="effect1_dropShadow_1_1289"/><feBlend in="SourceGraphic" in2="effect1_dropShadow_1_1289" result="shape"/></filter><filter id="filter2_d_1_1289" x="35.593" y="9.693" width="14.714" height="14.714" filterUnits="userSpaceOnUse" color-interpolation-filters="sRGB"><feFlood flood-opacity="0" result="BackgroundImageFix"/><feColorMatrix in="SourceAlpha" values="0 0 0 0 0 0 0 0 0 0 0 0 0 0 0 0 0 0 127 0" result="hardAlpha"/><feOffset dy="4"/><feGaussianBlur stdDeviation="2"/><feComposite in2="hardAlpha" operator="out"/><feColorMatrix values="0 0 0 0 0 0 0 0 0 0 0 0 0 0 0 0 0 0 0.25 0"/><feBlend in2="BackgroundImageFix" result="effect1_dropShadow_1_1289"/><feBlend in="SourceGraphic" in2="effect1_dropShadow_1_1289" result="shape"/></filter><clipPath id="clip0_1_1289"><path fill="#fff" d="M0 0h56v56H0z"/></clipPath></defs></svg>