<svg width="40" height="32" fill="none" xmlns="http://www.w3.org/2000/svg"><g clip-path="url(#clip0_159_5472)"><path d="M10 3a3 3 0 116 0 3 3 0 01-6 0zm-2.956 9.838a3.997 3.997 0 00-2.093 2.168l-.094.238a1.997 1.997 0 01-2.6 1.112 2.002 2.002 0 01-1.114-2.6l.095-.237A8.022 8.022 0 015.415 9.18l.688-.306A10.03 10.03 0 0110.23 8c2.788 0 5.3 1.675 6.369 4.244l.906 2.3 1.388.668a1.998 1.998 0 11-1.788 3.576l-1.669-.832a3.011 3.011 0 01-1.425-1.531l-.6-1.438-1.206 4.094 3.094 3.381c.337.37.581.813.7 1.3l1.438 5.75a1.994 1.994 0 01-1.45 2.425c-1.075.27-2.163-.38-2.482-1.45l-1.325-5.512-4.412-4.819c-.925-1.006-1.325-2.412-.919-3.731l1.056-3.969-.175.075-.687.306zm-.75 8.675l2.544 2.774-.907 2.263a2.88 2.88 0 01-.662 1.006l-3.855 3.857a2 2 0 01-2.828-2.826l3.71-3.712 1.56-3.9c.134.188.28.362.438.537zm33.118-6.926a1.996 1.996 0 010 2.826l-5 5a1.995 1.995 0 01-2.825 0 1.995 1.995 0 010-2.826L33.17 18H24c-1.106 0-2-.894-2-2 0-1.106.894-2 2-2h9.169l-1.581-1.588a1.995 1.995 0 010-2.825 1.996 1.996 0 012.825 0l5 5z" fill="#30CFD0"/></g><defs><clipPath id="clip0_159_5472"><path fill="#fff" d="M0 0h40v32H0z"/></clipPath></defs></svg>