<svg width="200" height="40" fill="none" xmlns="http://www.w3.org/2000/svg"><path d="M10.752 31.608c-2.112 0-3.893-.33-5.344-.992-1.45-.683-2.55-1.6-3.296-2.752-.747-1.173-1.12-2.517-1.12-4.032H6.08c0 .597.16 1.152.48 1.664.341.512.853.928 1.536 1.248.683.299 1.568.448 2.656.448.981 0 1.803-.128 2.464-.384s1.163-.608 1.504-1.056c.341-.47.512-1.003.512-1.6 0-.747-.32-1.333-.96-1.76-.64-.448-1.675-.736-3.104-.864l-1.76-.16c-2.325-.192-4.181-.917-5.568-2.176-1.387-1.259-2.08-2.923-2.08-4.992 0-1.493.352-2.784 1.056-3.872.725-1.088 1.728-1.92 3.008-2.496 1.28-.597 2.795-.896 4.544-.896 1.835 0 3.403.32 4.704.96 1.323.619 2.336 1.504 3.04 2.656.704 1.13 1.056 2.464 1.056 4h-5.12c0-.576-.139-1.099-.416-1.568-.277-.49-.693-.885-1.248-1.184-.533-.299-1.205-.448-2.016-.448-.768 0-1.419.128-1.952.384-.512.256-.896.608-1.152 1.056A2.686 2.686 0 006.88 14.2c0 .661.235 1.237.704 1.728.47.49 1.237.779 2.304.864l1.792.16c1.707.15 3.21.523 4.512 1.12 1.301.576 2.315 1.376 3.04 2.4.747 1.003 1.12 2.23 1.12 3.68 0 1.493-.395 2.805-1.184 3.936-.768 1.11-1.867 1.973-3.296 2.592-1.43.619-3.136.928-5.12.928zm23.008 0c-2.198 0-4.064-.405-5.6-1.216a8.331 8.331 0 01-3.456-3.52c-.79-1.515-1.184-3.307-1.184-5.376V7.64h5.248v14.048c0 1.024.192 1.92.576 2.688.405.747.97 1.323 1.696 1.728.746.405 1.653.608 2.72.608 1.088 0 1.994-.203 2.72-.608a4.018 4.018 0 001.696-1.728c.384-.747.576-1.643.576-2.688V7.64H44v13.856c0 2.07-.395 3.861-1.184 5.376a8.333 8.333 0 01-3.456 3.52c-1.515.81-3.382 1.216-5.6 1.216zm19.66-7.296v-4.544h4.191c.811 0 1.505-.16 2.08-.48a3.343 3.343 0 001.377-1.344c.32-.597.48-1.28.48-2.048 0-.81-.16-1.504-.48-2.08a3.104 3.104 0 00-1.377-1.344c-.576-.32-1.269-.48-2.08-.48H53.42V7.448h3.935c1.985 0 3.68.33 5.089.992 1.429.661 2.517 1.6 3.263 2.816.769 1.216 1.153 2.677 1.153 4.384v.512c0 1.664-.385 3.115-1.153 4.352-.746 1.216-1.834 2.155-3.263 2.816-1.409.661-3.105.992-5.089.992H53.42zM48.812 31V7.448h5.248V31h-5.248z" fill="url(#paint0_linear_627_239)"/><path d="M89.824 31.608c-2.112 0-3.957-.363-5.536-1.088-1.557-.747-2.848-1.717-3.872-2.912-1.024-1.216-1.792-2.528-2.304-3.936-.49-1.408-.736-2.763-.736-4.064v-.704c0-1.45.256-2.88.768-4.288a11.918 11.918 0 012.368-3.872c1.045-1.152 2.347-2.07 3.904-2.752 1.557-.704 3.36-1.056 5.408-1.056 2.048 0 3.85.352 5.408 1.056 1.557.683 2.859 1.6 3.904 2.752a11.918 11.918 0 012.368 3.872c.533 1.408.8 2.837.8 4.288v.704c0 1.301-.256 2.656-.768 4.064s-1.28 2.72-2.304 3.936c-1.024 1.195-2.325 2.165-3.904 2.912-1.557.725-3.392 1.088-5.504 1.088zm0-4.896c1.11 0 2.101-.192 2.976-.576a6.448 6.448 0 002.272-1.6 6.735 6.735 0 001.44-2.368 8.5 8.5 0 00.48-2.88c0-1.088-.17-2.08-.512-2.976a6.375 6.375 0 00-1.44-2.368 6.17 6.17 0 00-2.24-1.568c-.875-.363-1.867-.544-2.976-.544-1.11 0-2.101.181-2.976.544a6.478 6.478 0 00-2.272 1.568 6.598 6.598 0 00-1.408 2.368c-.32.896-.48 1.888-.48 2.976a8.5 8.5 0 00.48 2.88 7 7 0 001.408 2.368 6.856 6.856 0 002.272 1.6c.875.384 1.867.576 2.976.576zM106.28 31V7.64h7.232l5.344 13.12h.608l5.28-13.12h7.36V31h-5.184V11.064l.736.064-6.176 15.136h-4.992l-6.208-15.136.8-.064V31h-4.8zm39.191.608c-2.112 0-3.894-.33-5.344-.992-1.451-.683-2.55-1.6-3.296-2.752-.747-1.173-1.12-2.517-1.12-4.032h5.088c0 .597.16 1.152.48 1.664.341.512.853.928 1.536 1.248.682.299 1.568.448 2.656.448.981 0 1.802-.128 2.464-.384.661-.256 1.162-.608 1.504-1.056.341-.47.512-1.003.512-1.6 0-.747-.32-1.333-.96-1.76-.64-.448-1.675-.736-3.104-.864l-1.76-.16c-2.326-.192-4.182-.917-5.568-2.176-1.387-1.259-2.08-2.923-2.08-4.992 0-1.493.352-2.784 1.056-3.872.725-1.088 1.728-1.92 3.008-2.496 1.28-.597 2.794-.896 4.544-.896 1.834 0 3.402.32 4.704.96 1.322.619 2.336 1.504 3.04 2.656.704 1.13 1.056 2.464 1.056 4h-5.12c0-.576-.139-1.099-.416-1.568-.278-.49-.694-.885-1.248-1.184-.534-.299-1.206-.448-2.016-.448-.768 0-1.419.128-1.952.384-.512.256-.896.608-1.152 1.056a2.686 2.686 0 00-.384 1.408c0 .661.234 1.237.704 1.728.469.49 1.237.779 2.304.864l1.792.16c1.706.15 3.21.523 4.512 1.12 1.301.576 2.314 1.376 3.04 2.4.746 1.003 1.12 2.23 1.12 3.68 0 1.493-.395 2.805-1.184 3.936-.768 1.11-1.867 1.973-3.296 2.592-1.43.619-3.136.928-5.12.928zM162.67 31V11.576h5.248V31h-5.248zm-6.56-18.784V7.64h18.4v4.576h-18.4zm31.431 19.392c-2.197 0-4.064-.405-5.6-1.216a8.328 8.328 0 01-3.456-3.52c-.789-1.515-1.184-3.307-1.184-5.376V7.64h5.248v14.048c0 1.024.192 1.92.576 2.688a4.267 4.267 0 001.696 1.728c.747.405 1.653.608 2.72.608 1.088 0 1.995-.203 2.72-.608a4.016 4.016 0 001.696-1.728c.384-.747.576-1.643.576-2.688V7.64h5.248v13.856c0 2.07-.395 3.861-1.184 5.376a8.328 8.328 0 01-3.456 3.52c-1.515.81-3.381 1.216-5.6 1.216z" fill="#140C1D"/><defs><linearGradient id="paint0_linear_627_239" x1="0" y1="20.26" x2="68" y2="20.26" gradientUnits="userSpaceOnUse"><stop stop-color="#330867"/><stop offset="1" stop-color="#30CFD0"/></linearGradient></defs></svg>