<svg width="540" height="540" fill="none" xmlns="http://www.w3.org/2000/svg"><path d="M539.367 21.853c-12.266 40.87-36.26 117.914-64.737 198.07 7.383 2.242 14.112 4.219 19.649 5.933 4.878 1.45 8.833 5.011 10.684 9.626a16.934 16.934 0 01-.659 14.502c-23.34 44.561-87.149 161.156-150.293 226.125-1.055 1.187-2.11 2.637-3.165 3.692-80.156 80.293-210.305 80.293-290.566.131-80.294-80.293-80.294-210.41 0-290.777 1.054-1.055 2.505-2.109 3.691-3.164 64.806-63.12 181.244-126.96 225.119-150.3 4.482-2.373 9.756-2.637 14.375-.66 4.746 1.978 8.306 5.934 9.756 10.684 1.714 5.406 3.692 12.266 5.933 19.65 80.029-28.477 157.043-52.471 197.859-64.6 6.065-1.846 12.53-.264 17.012 4.218 5.448 4.345 6.08 10.932 5.342 16.87zM336.551 336.551c0-74.493-60.518-135-135-135-74.619 0-135 60.518-135 135 0 74.629 60.381 135 135 135 75.41.949 135-59.379 135-135zm-135-33.75c0 18.594-15.156 33.75-33.75 33.75-18.721 0-33.75-15.167-33.75-33.75 0-18.584 15.029-33.75 33.75-33.75a33.733 33.733 0 0123.867 9.888c6.328 6.328 9.883 15.846 9.883 23.862zm34.594 84.375c0 9.361-7.62 16.875-16.844 16.875a16.825 16.825 0 01-16.875-16.875c0-9.362 7.488-16.875 16.854-16.875 9.271 0 16.865 8.437 16.865 16.875z" fill="url(#paint0_linear_1_1549)" fill-opacity=".1"/><defs><linearGradient id="paint0_linear_1_1549" x1=".06" y1="273.529" x2="539.619" y2="273.53" gradientUnits="userSpaceOnUse"><stop stop-color="#330867"/><stop offset="1" stop-color="#30CFD0"/></linearGradient></defs></svg>