<svg width="114" height="40" fill="none" xmlns="http://www.w3.org/2000/svg"><path d="M25.656 29.6V16.388h1.368v4.158l-.324-.036c.06-1.032.276-1.872.648-2.52.384-.66.882-1.146 1.494-1.458a4.335 4.335 0 011.998-.468c.696 0 1.326.132 1.89.396a4.434 4.434 0 011.476 1.08c.408.456.72.984.936 1.584.216.6.324 1.236.324 1.908v.324c0 .672-.114 1.308-.342 1.908a4.862 4.862 0 01-.972 1.584c-.408.456-.9.816-1.476 1.08a4.361 4.361 0 01-1.872.396c-.684 0-1.338-.15-1.962-.45-.624-.3-1.14-.786-1.548-1.458-.408-.672-.642-1.554-.702-2.646l.792 1.44v6.39h-1.728zm4.878-4.788c.648 0 1.212-.15 1.692-.45.48-.312.852-.738 1.116-1.278.264-.552.396-1.182.396-1.89 0-.72-.132-1.35-.396-1.89a3.003 3.003 0 00-1.116-1.26c-.48-.312-1.044-.468-1.692-.468-.576 0-1.11.132-1.602.396a2.948 2.948 0 00-1.188 1.116c-.288.48-.432 1.062-.432 1.746v.828c0 .66.15 1.224.45 1.692.3.468.696.828 1.188 1.08.492.252 1.02.378 1.584.378zm6.708 4.932v-1.548h1.386c.408 0 .75-.054 1.026-.162.288-.096.522-.264.702-.504.192-.24.348-.558.468-.954l3.024-10.188h1.692l-3.204 10.638c-.192.636-.462 1.152-.81 1.548a2.961 2.961 0 01-1.278.882c-.492.192-1.068.288-1.728.288h-1.278zm2.934-3.96v-1.44h2.088v1.44h-2.088zm-.18 0l-3.438-9.396h1.764l3.294 9.396h-1.62zm11.658.324c-.72 0-1.344-.102-1.872-.306a2.38 2.38 0 01-1.206-1.044c-.276-.504-.414-1.182-.414-2.034v-9.252h1.656v9.468c0 .516.138.918.414 1.206.288.276.69.414 1.206.414h1.692v1.548h-1.476zm-5.148-8.424v-1.296h6.624v1.296h-6.624zM55.574 26V12.86h1.728v7.848h-.432c0-.948.12-1.764.36-2.448.252-.696.636-1.23 1.152-1.602.516-.372 1.176-.558 1.98-.558h.072c1.152 0 2.022.384 2.61 1.152.588.756.882 1.842.882 3.258V26h-1.728v-5.85c0-.78-.222-1.386-.666-1.818-.432-.432-.996-.648-1.692-.648-.768 0-1.386.258-1.854.774-.456.504-.684 1.17-.684 1.998V26h-1.728zm15.942.324c-.84 0-1.578-.144-2.214-.432a5.107 5.107 0 01-1.62-1.134 5.176 5.176 0 01-.99-1.602 5.183 5.183 0 01-.324-1.8v-.324c0-.612.114-1.212.342-1.8.228-.6.564-1.134 1.008-1.602.444-.48.984-.858 1.62-1.134.636-.288 1.362-.432 2.178-.432.816 0 1.542.144 2.178.432a4.753 4.753 0 011.62 1.134c.444.468.78 1.002 1.008 1.602a4.94 4.94 0 01.342 1.8v.324a4.94 4.94 0 01-.342 1.8 4.761 4.761 0 01-.99 1.602 4.897 4.897 0 01-1.602 1.134c-.636.288-1.374.432-2.214.432zm0-1.548c.72 0 1.332-.156 1.836-.468a3.125 3.125 0 001.17-1.296c.276-.54.414-1.146.414-1.818 0-.684-.138-1.296-.414-1.836a3.128 3.128 0 00-1.188-1.278c-.504-.312-1.11-.468-1.818-.468-.696 0-1.302.156-1.818.468a3.128 3.128 0 00-1.188 1.278c-.276.54-.414 1.152-.414 1.836 0 .672.132 1.278.396 1.818.276.54.666.972 1.17 1.296.516.312 1.134.468 1.854.468zM79.252 26v-9.612h1.368v4.122h-.216c0-.948.126-1.746.378-2.394.264-.66.66-1.158 1.188-1.494.528-.348 1.194-.522 1.998-.522h.072c1.212 0 2.106.378 2.682 1.134.588.756.882 1.848.882 3.276V26h-1.728v-5.85c0-.744-.21-1.338-.63-1.782-.42-.456-.996-.684-1.728-.684-.756 0-1.368.234-1.836.702-.468.468-.702 1.092-.702 1.872V26h-1.728z" fill="#fff"/><rect x=".5" y=".5" width="113" height="39" rx="7.5" stroke="#fff"/></svg>