<svg width="87" height="40" fill="none" xmlns="http://www.w3.org/2000/svg"><path d="M28.464 26l1.944-9.288h2.34L35.016 26H33.54l-2.268-9.252h.576L29.886 26h-1.422zm-.882 0v-1.368h1.998V26h-1.998zm-.396 0l-2.718-9.612h1.656L28.77 26h-1.584zm6.714 0v-1.368h1.998V26H33.9zm.81 0l2.304-9.612h1.566L36.222 26H34.71zm10.114.324c-.84 0-1.566-.144-2.178-.432-.612-.288-1.11-.666-1.494-1.134a5.055 5.055 0 01-.864-1.602 6.116 6.116 0 01-.27-1.8v-.324c0-.624.09-1.23.27-1.818.192-.588.48-1.116.864-1.584.384-.48.87-.858 1.458-1.134.6-.288 1.302-.432 2.106-.432 1.044 0 1.902.228 2.574.684a4.034 4.034 0 011.512 1.728c.336.708.504 1.464.504 2.268v.774h-8.532v-1.296h7.272l-.396.702c0-.684-.108-1.272-.324-1.764a2.53 2.53 0 00-.972-1.17c-.432-.276-.978-.414-1.638-.414-.684 0-1.254.156-1.71.468-.444.312-.78.738-1.008 1.278-.216.54-.324 1.164-.324 1.872 0 .684.108 1.302.324 1.854.228.54.576.972 1.044 1.296.468.312 1.062.468 1.782.468.756 0 1.368-.168 1.836-.504.48-.336.768-.726.864-1.17h1.62a3.813 3.813 0 01-.792 1.71 3.82 3.82 0 01-1.494 1.098c-.6.252-1.278.378-2.034.378zm12.012 0c-.792 0-1.5-.174-2.124-.522-.613-.348-1.099-.852-1.459-1.512-.36-.672-.557-1.476-.593-2.412h.468V26H51.76V12.86h1.727v6.39l-.611 1.314c.047-1.044.258-1.896.63-2.556.371-.66.858-1.146 1.458-1.458a4.241 4.241 0 012.016-.486c.684 0 1.308.132 1.872.396.564.252 1.05.606 1.458 1.062.407.444.72.966.935 1.566.217.588.325 1.224.325 1.908v.324c0 .684-.114 1.326-.343 1.926a4.818 4.818 0 01-.953 1.602 4.58 4.58 0 01-1.513 1.08c-.576.264-1.218.396-1.925.396zm-.198-1.512c.648 0 1.212-.156 1.692-.468.48-.312.852-.738 1.116-1.278.264-.552.396-1.188.396-1.908s-.139-1.35-.414-1.89a2.885 2.885 0 00-1.116-1.242c-.48-.3-1.038-.45-1.674-.45-.576 0-1.11.132-1.602.396a2.948 2.948 0 00-1.189 1.116c-.288.48-.431 1.062-.431 1.746v.828c0 .66.15 1.224.45 1.692.3.468.696.828 1.188 1.08.491.252 1.02.378 1.584.378z" fill="#fff"/><rect x=".5" y=".5" width="86" height="39" rx="7.5" stroke="#fff"/></svg>