<svg width="56" height="56" fill="none" xmlns="http://www.w3.org/2000/svg"><g clip-path="url(#clip0_1_1288)"><path d="M0 26.88C0 14.209 0 7.873 3.936 3.936 7.873 0 14.21 0 26.88 0h2.24c12.671 0 19.007 0 22.943 3.936C56 7.873 56 14.21 56 26.88v2.24c0 12.671 0 19.007-3.937 22.943C48.127 56 41.791 56 29.12 56h-2.24c-12.671 0-19.007 0-22.944-3.937C0 48.127 0 41.791 0 29.12v-2.24z" fill="#fff"/><path d="M29.7 40.32c-13.01 0-20.43-8.829-20.74-23.52h6.517c.214 10.783 5.019 15.35 8.824 16.292V16.8h6.137v9.3c3.758-.4 7.706-4.639 9.038-9.3h6.137c-1.023 5.744-5.304 9.982-8.349 11.724 3.044 1.413 7.92 5.11 9.776 11.796h-6.755c-1.451-4.474-5.066-7.934-9.847-8.405v8.405h-.737z" fill="#140C1D"/></g><defs><clipPath id="clip0_1_1288"><path fill="#fff" d="M0 0h56v56H0z"/></clipPath></defs></svg>