<svg width="18" height="22" viewBox="0 0 18 22" fill="none" xmlns="http://www.w3.org/2000/svg">
<path d="M17.5591 13.5594L10.0591 21.0594C9.76852 21.3547 9.38414 21.5 8.99977 21.5C8.61539 21.5 8.23195 21.3535 7.93945 21.0606L0.439453 13.5606C-0.146484 12.9746 -0.146484 12.0254 0.439453 11.4395C1.02539 10.8535 1.97461 10.8535 2.56055 11.4395L7.49977 16.3813V2C7.49977 1.17078 8.17148 0.542191 8.95758 0.542191C9.74367 0.542191 10.4998 1.17078 10.4998 2V16.3813L15.4404 11.4406C16.0263 10.8547 16.9755 10.8547 17.5615 11.4406C18.1474 12.0266 18.1451 12.9734 17.5591 13.5594Z" fill="white"/>
</svg>
