<svg width="56" height="56" viewBox="0 0 56 56" fill="none" xmlns="http://www.w3.org/2000/svg">
<path d="M28 5.04645C35.4808 5.04645 36.3589 5.07979 39.3156 5.21318C42.0501 5.33545 43.5284 5.79119 44.5177 6.18023C45.8293 6.69154 46.763 7.29178 47.7412 8.26995C48.7194 9.24811 49.3307 10.1818 49.8309 11.4934C50.2088 12.4827 50.6757 13.9611 50.798 16.6955C50.9314 19.6522 50.9647 20.5304 50.9647 28.0111C50.9647 35.4919 50.9314 36.37 50.798 39.3267C50.6757 42.0611 50.22 43.5395 49.8309 44.5288C49.3196 45.8404 48.7194 46.7741 47.7412 47.7523C46.763 48.7304 45.8293 49.3418 44.5177 49.842C43.5284 50.2199 42.0501 50.6868 39.3156 50.809C36.3589 50.9424 35.4808 50.9758 28 50.9758C20.5193 50.9758 19.6411 50.9424 16.6844 50.809C13.95 50.6868 12.4716 50.231 11.4823 49.842C10.1707 49.3307 9.23701 48.7304 8.25884 47.7523C7.28067 46.7741 6.66932 45.8404 6.16912 44.5288C5.79119 43.5395 5.32434 42.0611 5.20207 39.3267C5.06868 36.37 5.03533 35.4919 5.03533 28.0111C5.03533 20.5304 5.06868 19.6522 5.20207 16.6955C5.32434 13.9611 5.78008 12.4827 6.16912 11.4934C6.68043 10.1818 7.28067 9.24811 8.25884 8.26995C9.23701 7.29178 10.1707 6.68043 11.4823 6.18023C12.4716 5.8023 13.95 5.33545 16.6844 5.21318C19.6411 5.06868 20.5304 5.04645 28 5.04645ZM28 0C20.397 0 19.4411 0.0333466 16.451 0.166733C13.472 0.300119 11.4379 0.778087 9.6594 1.46725C7.81422 2.17864 6.25804 3.14569 4.70187 4.70187C3.14569 6.25804 2.18976 7.82533 1.46725 9.65939C0.778087 11.4379 0.300119 13.472 0.166733 16.4621C0.0333466 19.441 0 20.397 0 28C0 35.603 0.0333466 36.5589 0.166733 39.549C0.300119 42.528 0.778087 44.5621 1.46725 46.3517C2.17864 48.1969 3.14569 49.7531 4.70187 51.3092C6.25804 52.8654 7.82533 53.8214 9.6594 54.5439C11.4379 55.233 13.472 55.711 16.4621 55.8444C19.4522 55.9778 20.397 56.0111 28.0111 56.0111C35.6253 56.0111 36.5701 55.9778 39.5602 55.8444C42.5391 55.711 44.5733 55.233 46.3629 54.5439C48.2081 53.8325 49.7642 52.8654 51.3204 51.3092C52.8766 49.7531 53.8325 48.1858 54.555 46.3517C55.2442 44.5732 55.7222 42.5391 55.8555 39.549C55.9889 36.5589 56.0223 35.6141 56.0223 28C56.0223 20.3859 55.9889 19.441 55.8555 16.451C55.7222 13.472 55.2442 11.4379 54.555 9.64827C53.8436 7.8031 52.8766 6.24692 51.3204 4.69075C49.7642 3.13458 48.1969 2.17864 46.3629 1.45613C44.5844 0.766971 42.5502 0.289004 39.5602 0.155617C36.559 0.0333466 35.603 0 28 0Z" fill="white"/>
<path d="M28 5.04645C35.4808 5.04645 36.3589 5.07979 39.3156 5.21318C42.0501 5.33545 43.5284 5.79119 44.5177 6.18023C45.8293 6.69154 46.763 7.29178 47.7412 8.26995C48.7194 9.24811 49.3307 10.1818 49.8309 11.4934C50.2088 12.4827 50.6757 13.9611 50.798 16.6955C50.9314 19.6522 50.9647 20.5304 50.9647 28.0111C50.9647 35.4919 50.9314 36.37 50.798 39.3267C50.6757 42.0611 50.22 43.5395 49.8309 44.5288C49.3196 45.8404 48.7194 46.7741 47.7412 47.7523C46.763 48.7304 45.8293 49.3418 44.5177 49.842C43.5284 50.2199 42.0501 50.6868 39.3156 50.809C36.3589 50.9424 35.4808 50.9758 28 50.9758C20.5193 50.9758 19.6411 50.9424 16.6844 50.809C13.95 50.6868 12.4716 50.231 11.4823 49.842C10.1707 49.3307 9.23701 48.7304 8.25884 47.7523C7.28067 46.7741 6.66932 45.8404 6.16912 44.5288C5.79119 43.5395 5.32434 42.0611 5.20207 39.3267C5.06868 36.37 5.03533 35.4919 5.03533 28.0111C5.03533 20.5304 5.06868 19.6522 5.20207 16.6955C5.32434 13.9611 5.78008 12.4827 6.16912 11.4934C6.68043 10.1818 7.28067 9.24811 8.25884 8.26995C9.23701 7.29178 10.1707 6.68043 11.4823 6.18023C12.4716 5.8023 13.95 5.33545 16.6844 5.21318C19.6411 5.06868 20.5304 5.04645 28 5.04645Z" fill="white"/>
<path fill-rule="evenodd" clip-rule="evenodd" d="M12.6744 27.6556C20.8369 24.0993 26.2799 21.7547 29.0033 20.622C36.7792 17.3877 38.395 16.8259 39.4481 16.8073C39.6798 16.8032 40.1977 16.8607 40.5331 17.1329C40.8164 17.3627 40.8944 17.6732 40.9316 17.8911C40.9689 18.1091 41.0154 18.6055 40.9785 18.9934C40.5571 23.4209 38.7338 34.1651 37.8062 39.124C37.4137 41.2222 36.6409 41.9258 35.8927 41.9946C34.2666 42.1443 33.0319 40.9201 31.4571 39.8877C28.9927 38.2723 27.6005 37.2667 25.2084 35.6903C22.4439 33.8686 24.236 32.8673 25.8115 31.231C26.2238 30.8027 33.388 24.2863 33.5267 23.6951C33.544 23.6212 33.5601 23.3456 33.3964 23.2001C33.2327 23.0546 32.9911 23.1044 32.8167 23.1439C32.5695 23.2 28.6327 25.8021 21.0061 30.9503C19.8887 31.7176 18.8765 32.0915 17.9696 32.0719C16.9699 32.0503 15.0468 31.5066 13.6171 31.0419C11.8636 30.4719 10.47 30.1705 10.5914 29.2025C10.6546 28.6983 11.3489 28.1827 12.6744 27.6556Z" fill="#140C1D"/>
</svg>
