<svg width="21" height="24" viewBox="0 0 21 24" fill="none" xmlns="http://www.w3.org/2000/svg">
<path d="M20.5593 13.0605L13.0593 20.5605C12.7687 20.8559 12.3843 21.0012 11.9999 21.0012C11.6156 21.0012 11.2321 20.8547 10.9396 20.5617C10.3537 19.9758 10.3537 19.0266 10.9396 18.4406L15.8812 13.5012H1.49993C0.671644 13.5012 0 12.8309 0 12.0012C0 11.1715 0.671644 10.5012 1.49993 10.5012H15.8812L10.9405 5.56055C10.3546 4.97461 10.3546 4.02539 10.9405 3.43945C11.5265 2.85352 12.4757 2.85352 13.0616 3.43945L20.5616 10.9395C21.1452 11.5277 21.1452 12.4746 20.5593 13.0605Z" fill="#140C1D"/>
</svg>
