<svg width="32" height="32" viewBox="0 0 32 32" fill="none" xmlns="http://www.w3.org/2000/svg">
<path d="M27.4286 0C29.95 0 32 2.04643 32 4.57143V27.4286C32 29.95 29.95 32 27.4286 32H4.57143C2.04643 32 0 29.95 0 27.4286V4.57143C0 2.04643 2.04643 0 4.57143 0H27.4286ZM27.4286 3.42857H4.57143C3.94 3.42857 3.42857 3.94 3.42857 4.57143V27.4286C3.42857 28.0571 3.94 28.5714 4.57143 28.5714H27.4286C28.0571 28.5714 28.5714 28.0571 28.5714 27.4286V4.57143C28.5714 3.94 28.0571 3.42857 27.4286 3.42857Z" fill="#4F4955"/>
</svg>
