<svg width="96" height="96" viewBox="0 0 96 96" fill="none" xmlns="http://www.w3.org/2000/svg">
<path d="M95.8876 3.88506C93.707 11.1507 89.4414 24.8476 84.3789 39.0976C85.6914 39.496 86.8876 39.8476 87.872 40.1522C88.7392 40.4101 89.4423 41.0431 89.7714 41.8636C90.123 42.7073 90.0761 43.645 89.6542 44.4417C85.5048 52.3636 74.1611 73.0917 62.9355 84.6417C62.748 84.8526 62.5603 85.1104 62.3728 85.2979C48.1228 99.5723 24.9853 99.5723 10.7165 85.3214C-3.55785 71.047 -3.55785 47.9151 10.7165 33.6276C10.904 33.4401 11.1618 33.2526 11.3728 33.0651C22.8939 21.8438 43.5939 10.4944 51.3939 6.34506C52.1908 5.92318 53.1283 5.87631 53.9495 6.22787C54.7933 6.57943 55.4261 7.28275 55.6839 8.12725C55.9886 9.08819 56.3402 10.3079 56.7386 11.6204C70.9661 6.55787 84.6573 2.29225 91.9136 0.135997C92.9917 -0.192128 94.1411 0.0890658 94.938 0.885997C95.9064 1.65831 96.0189 2.82943 95.8876 3.88506ZM59.8314 59.8313C59.8314 46.5882 49.0727 35.8313 35.8314 35.8313C22.5658 35.8313 11.8314 46.5901 11.8314 59.8313C11.8314 73.0988 22.5658 83.8313 35.8314 83.8313C49.2376 84.0001 59.8314 73.2751 59.8314 59.8313ZM35.8314 53.8313C35.8314 57.1369 33.137 59.8313 29.8314 59.8313C26.5033 59.8313 23.8314 57.1351 23.8314 53.8313C23.8314 50.5276 26.5033 47.8313 29.8314 47.8313C31.4251 47.8313 32.9495 48.4641 34.0745 49.5891C35.1995 50.7141 35.8314 52.4063 35.8314 53.8313ZM41.9814 68.8313C41.9814 70.4956 40.6269 71.8313 38.987 71.8313C37.323 71.8313 35.987 70.495 35.987 68.8313C35.987 67.1671 37.3183 65.8313 38.9833 65.8313C40.6314 65.8313 41.9814 67.3313 41.9814 68.8313Z" fill="#330867"/>
</svg>
