<svg width="96" height="96" viewBox="0 0 96 96" fill="none" xmlns="http://www.w3.org/2000/svg">
<path d="M29.3625 72.1687L23.5687 66.2062C21.975 64.7812 21.4125 62.4562 21.9562 60.3375C22.5187 58.6687 23.2687 56.4937 24.3375 54H4.49999C2.88374 54 1.39011 53.1375 0.58986 51.7312C-0.210577 50.325 -0.19539 48.6 0.629423 47.2125L10.4681 30.6187C12.8981 26.5125 17.3119 23.8312 22.0875 23.8312H37.5C37.95 23.25 38.4 22.5562 38.85 21.8812C54.2062 -0.763165 77.0812 -1.52667 90.7312 0.989022C92.925 1.39008 94.6125 3.08058 95.0062 5.26121C97.5187 18.9187 96.7687 41.7937 74.1187 57.15C73.4625 57.6 72.5812 58.05 72 58.3312V73.9125C72 78.6937 69.4875 83.1 65.3812 85.5375L48.7875 95.3625C47.4 96.1875 45.675 96.2062 44.2687 95.4187C42.8625 94.6125 42 93.1125 42 91.5V71.4C39.3562 72.3 37.05 73.0687 35.3062 73.6312C33.2062 74.3062 30.9187 73.725 29.3625 72.1687ZM72 31.3312C76.1437 31.3312 79.5 28.1437 79.5 23.8312C79.5 19.8562 76.1437 16.3312 72 16.3312C67.8562 16.3312 64.5 19.8562 64.5 23.8312C64.5 28.1437 67.8562 31.3312 72 31.3312Z" fill="#330867"/>
</svg>
