<svg width="96" height="96" viewBox="0 0 96 96" fill="none" xmlns="http://www.w3.org/2000/svg">
<path d="M40.5002 19.5C38.0252 19.5 36.0002 21.525 36.0002 24C36.0002 26.475 38.0158 28.5 40.5002 28.5C55.3896 28.5 67.5002 40.6106 67.5002 55.5C67.5002 57.9938 69.5252 60 72.0002 60C74.4752 60 76.5002 57.9844 76.5002 55.5C76.5002 35.6437 60.3564 19.5 40.5002 19.5ZM42.0002 0C38.6814 0 36.0002 2.68313 36.0002 6C36.0002 9.31688 38.6871 12 42.0002 12C65.1564 12 84.0002 30.8438 84.0002 54C84.0002 57.3169 86.687 60 90.0002 60C93.3133 60 96.0002 57.3169 96.0002 54C96.0002 24.225 71.7752 0 42.0002 0ZM35.4189 64.875L40.5508 59.7431C41.043 59.8603 41.4994 60.0255 42.015 60.0255C45.3431 60.0255 48.0131 57.3517 48.0131 54.0255C48.0131 50.7217 45.3431 48.0236 42.015 48.0236C38.7112 48.0236 36.0169 50.7199 36.0169 54.0255C36.0169 54.5646 36.1687 55.0099 36.3094 55.5021L31.1627 60.6375L9.25705 38.7188C7.89768 37.3594 5.48455 37.5938 4.7383 39.2812C-3.08982 53.8838 -0.864196 72.4125 11.4414 84.7312C23.7452 97.035 42.3039 99.2625 56.8914 91.4344C58.6024 90.4969 58.8377 88.1062 57.4539 86.7469L35.4189 64.875Z" fill="#330867"/>
</svg>
