<svg width="32" height="32" viewBox="0 0 32 32" fill="none" xmlns="http://www.w3.org/2000/svg">
<path d="M27.4286 0C29.95 0 32 2.04643 32 4.57143V27.4286C32 29.95 29.95 32 27.4286 32H4.57143C2.04643 32 0 29.95 0 27.4286V4.57143C0 2.04643 2.04643 0 4.57143 0H27.4286ZM24.2714 12.8429C25.05 12.0643 25.05 10.7929 24.2714 10.0143C23.4929 9.23571 22.2214 9.23571 21.4429 10.0143L13.7143 17.7429L10.5571 14.5857C9.77857 13.8071 8.50714 13.8071 7.72857 14.5857C6.94786 15.3643 6.94786 16.6357 7.72857 17.4143L12.3 21.9857C13.0786 22.7643 14.35 22.7643 15.1286 21.9857L24.2714 12.8429Z" fill="#330867"/>
</svg>
