<svg width="48" height="48" viewBox="0 0 48 48" fill="none" xmlns="http://www.w3.org/2000/svg">
<path d="M46.5864 39.8106C48.4612 41.6855 48.4612 44.7228 46.5864 46.5976C45.6564 47.535 44.4265 48 43.1966 48C41.9667 48 40.7398 47.5313 39.8039 46.5939L23.9981 30.7963L8.19386 46.5901C7.25643 47.535 6.02803 48 4.79962 48C3.57122 48 2.34432 47.535 1.40614 46.5901C-0.468713 44.7153 -0.468713 41.678 1.40614 39.8031L17.2149 23.9944L1.40614 8.19311C-0.468713 6.31826 -0.468713 3.28099 1.40614 1.40614C3.28099 -0.468713 6.31826 -0.468713 8.19311 1.40614L23.9981 17.2224L39.8069 1.41364C41.6817 -0.461213 44.719 -0.461213 46.5939 1.41364C48.4687 3.28849 48.4687 6.32576 46.5939 8.20061L30.7851 24.0094L46.5864 39.8106Z" fill="#140C1D"/>
</svg>
