<svg width="90" height="80" viewBox="0 0 90 80" fill="none" xmlns="http://www.w3.org/2000/svg">
<path d="M89.2308 0V13.3333H86.9231C81.453 13.3333 77.094 14.2735 73.8462 16.1539C70.5983 18.0342 68.2051 21.0256 66.6667 25.1282C65.2991 29.0598 64.6154 34.1026 64.6154 40.2564V59.4872L58.4615 47.9487C59.6581 47.265 61.1966 46.7521 63.0769 46.4103C65.1282 46.0684 67.094 45.8974 68.9744 45.8974C73.7607 45.8974 77.6923 47.4359 80.7692 50.5128C84.0171 53.4188 85.641 57.5214 85.641 62.8205C85.641 67.7778 84.1026 71.8803 81.0256 75.1282C78.1197 78.3761 74.1026 80 68.9744 80C65.7265 80 62.6496 79.2308 59.7436 77.6923C56.8376 76.1538 54.4444 73.4188 52.5641 69.4872C50.6838 65.5556 49.7436 59.9145 49.7436 52.5641V47.1795C49.7436 34.7009 51.2821 25.0427 54.359 18.2051C57.4359 11.3675 61.7949 6.66667 67.4359 4.10256C73.0769 1.36752 79.7436 0 87.4359 0H89.2308ZM39.4872 0V13.3333H37.1795C31.7094 13.3333 27.3504 14.2735 24.1026 16.1539C20.8547 18.0342 18.4615 21.0256 16.9231 25.1282C15.5556 29.0598 14.8718 34.1026 14.8718 40.2564V59.4872L8.71795 47.9487C9.91453 47.265 11.453 46.7521 13.3333 46.4103C15.3846 46.0684 17.3504 45.8974 19.2308 45.8974C24.0171 45.8974 27.9487 47.4359 31.0256 50.5128C34.2735 53.4188 35.8974 57.5214 35.8974 62.8205C35.8974 67.7778 34.359 71.8803 31.282 75.1282C28.3761 78.3761 24.359 80 19.2308 80C15.9829 80 12.906 79.2308 10 77.6923C7.09402 76.1538 4.70085 73.4188 2.82051 69.4872C0.94017 65.5556 0 59.9145 0 52.5641V47.1795C0 34.7009 1.53846 25.0427 4.61538 18.2051C7.69231 11.3675 12.0513 6.66667 17.6923 4.10256C23.3333 1.36752 30 0 37.6923 0H39.4872Z" fill="url(#paint0_linear_53_197)" fill-opacity="0.1"/>
<defs>
<linearGradient id="paint0_linear_53_197" x1="-4.52334e-07" y1="40.5195" x2="89.2308" y2="40.5195" gradientUnits="userSpaceOnUse">
<stop stop-color="#330867"/>
<stop offset="1" stop-color="#30CFD0"/>
</linearGradient>
</defs>
</svg>
