<svg width="540" height="540" viewBox="0 0 540 540" fill="none" xmlns="http://www.w3.org/2000/svg">
<g opacity="0.1" clip-path="url(#clip0_371_2197)">
<path d="M165.164 405.949L132.574 372.41C123.609 364.395 120.445 351.316 123.504 339.398C126.668 330.012 130.887 317.777 136.898 303.75H25.3124C16.221 303.75 7.81937 298.898 3.31796 290.988C-1.1845 283.078 -1.09907 273.375 3.5405 265.57L58.8831 172.231C72.5519 149.133 97.3792 134.051 124.242 134.051H210.937C213.469 130.781 216 126.879 218.531 123.082C304.91 -4.29255 433.582 -8.58723 510.363 5.56351C522.703 7.81948 532.195 17.3285 534.41 29.5946C548.543 106.418 544.324 235.09 416.918 321.469C413.226 324 408.269 326.531 405 328.113V415.758C405 442.652 390.867 467.438 367.769 481.148L274.43 536.414C266.625 541.055 256.922 541.16 249.012 536.73C241.101 532.195 236.25 523.758 236.25 514.688V401.625C221.379 406.688 208.406 411.012 198.598 414.176C186.785 417.973 173.918 414.703 165.164 405.949ZM405 176.238C428.308 176.238 447.187 158.309 447.187 134.051C447.187 111.691 428.308 91.8633 405 91.8633C381.691 91.8633 362.812 111.691 362.812 134.051C362.812 158.309 381.691 176.238 405 176.238Z" fill="url(#paint0_linear_371_2197)"/>
</g>
<defs>
<linearGradient id="paint0_linear_371_2197" x1="-2.73727e-06" y1="273.494" x2="539.974" y2="273.494" gradientUnits="userSpaceOnUse">
<stop stop-color="#330867"/>
<stop offset="1" stop-color="#30CFD0"/>
</linearGradient>
<clipPath id="clip0_371_2197">
<rect width="540" height="540" fill="white"/>
</clipPath>
</defs>
</svg>
