<svg width="120" height="120" viewBox="0 0 120 120" fill="none" xmlns="http://www.w3.org/2000/svg">
<g filter="url(#filter0_d_1_1251)">
<rect x="12" y="6" width="96" height="96" rx="48" fill="white" shape-rendering="crispEdges"/>
<g clip-path="url(#clip0_1_1251)">
<path d="M54 72C53.2324 72 52.4644 71.7071 51.8794 71.1211C50.7075 69.9492 50.7075 68.0508 51.8794 66.8789L64.7625 54L51.8794 41.1188C50.7075 39.9469 50.7075 38.0485 51.8794 36.8766C53.0513 35.7047 54.9497 35.7047 56.1216 36.8766L71.1216 51.8766C72.2935 53.0485 72.2935 54.9469 71.1216 56.1188L56.1216 71.1188C55.5356 71.7094 54.7678 72 54 72Z" fill="#89858E"/>
</g>
</g>
<defs>
<filter id="filter0_d_1_1251" x="0" y="0" width="120" height="120" filterUnits="userSpaceOnUse" color-interpolation-filters="sRGB">
<feFlood flood-opacity="0" result="BackgroundImageFix"/>
<feColorMatrix in="SourceAlpha" type="matrix" values="0 0 0 0 0 0 0 0 0 0 0 0 0 0 0 0 0 0 127 0" result="hardAlpha"/>
<feOffset dy="6"/>
<feGaussianBlur stdDeviation="6"/>
<feComposite in2="hardAlpha" operator="out"/>
<feColorMatrix type="matrix" values="0 0 0 0 0.0784314 0 0 0 0 0.0470588 0 0 0 0 0.113725 0 0 0 0.05 0"/>
<feBlend mode="normal" in2="BackgroundImageFix" result="effect1_dropShadow_1_1251"/>
<feBlend mode="normal" in="SourceGraphic" in2="effect1_dropShadow_1_1251" result="shape"/>
</filter>
<clipPath id="clip0_1_1251">
<rect width="24" height="48" fill="white" transform="translate(48 30)"/>
</clipPath>
</defs>
</svg>
