<svg width="56" height="56" viewBox="0 0 56 56" fill="none" xmlns="http://www.w3.org/2000/svg">
<g clip-path="url(#clip0_1_1289)">
<g filter="url(#filter0_d_1_1289)">
<path d="M28 5.04645C35.4808 5.04645 36.3589 5.07979 39.3156 5.21318C42.0501 5.33545 43.5284 5.79119 44.5177 6.18023C45.8293 6.69154 46.763 7.29178 47.7412 8.26995C48.7194 9.24811 49.3307 10.1818 49.8309 11.4934C50.2088 12.4827 50.6757 13.9611 50.798 16.6955C50.9314 19.6522 50.9647 20.5304 50.9647 28.0111C50.9647 35.4919 50.9314 36.37 50.798 39.3267C50.6757 42.0611 50.22 43.5395 49.8309 44.5288C49.3196 45.8404 48.7194 46.7741 47.7412 47.7523C46.763 48.7304 45.8293 49.3418 44.5177 49.842C43.5284 50.2199 42.0501 50.6868 39.3156 50.809C36.3589 50.9424 35.4808 50.9758 28 50.9758C20.5193 50.9758 19.6411 50.9424 16.6844 50.809C13.95 50.6868 12.4716 50.231 11.4823 49.842C10.1707 49.3307 9.23701 48.7304 8.25884 47.7523C7.28067 46.7741 6.66932 45.8404 6.16912 44.5288C5.79119 43.5395 5.32434 42.0611 5.20207 39.3267C5.06868 36.37 5.03533 35.4919 5.03533 28.0111C5.03533 20.5304 5.06868 19.6522 5.20207 16.6955C5.32434 13.9611 5.78008 12.4827 6.16912 11.4934C6.68043 10.1818 7.28067 9.24811 8.25884 8.26995C9.23701 7.29178 10.1707 6.68043 11.4823 6.18023C12.4716 5.8023 13.95 5.33545 16.6844 5.21318C19.6411 5.06868 20.5304 5.04645 28 5.04645ZM28 0C20.397 0 19.4411 0.0333466 16.451 0.166733C13.472 0.300119 11.4379 0.778087 9.6594 1.46725C7.81422 2.17864 6.25804 3.14569 4.70187 4.70187C3.14569 6.25804 2.18976 7.82533 1.46725 9.65939C0.778087 11.4379 0.300119 13.472 0.166733 16.4621C0.0333466 19.441 0 20.397 0 28C0 35.603 0.0333466 36.5589 0.166733 39.549C0.300119 42.528 0.778087 44.5621 1.46725 46.3517C2.17864 48.1969 3.14569 49.7531 4.70187 51.3092C6.25804 52.8654 7.82533 53.8214 9.6594 54.5439C11.4379 55.233 13.472 55.711 16.4621 55.8444C19.4522 55.9778 20.397 56.0111 28.0111 56.0111C35.6253 56.0111 36.5701 55.9778 39.5602 55.8444C42.5391 55.711 44.5733 55.233 46.3629 54.5439C48.2081 53.8325 49.7642 52.8654 51.3204 51.3092C52.8766 49.7531 53.8325 48.1858 54.555 46.3517C55.2442 44.5732 55.7222 42.5391 55.8555 39.549C55.9889 36.5589 56.0223 35.6141 56.0223 28C56.0223 20.3859 55.9889 19.441 55.8555 16.451C55.7222 13.472 55.2442 11.4379 54.555 9.64827C53.8436 7.8031 52.8766 6.24692 51.3204 4.69075C49.7642 3.13458 48.1969 2.17864 46.3629 1.45613C44.5844 0.766971 42.5502 0.289004 39.5602 0.155617C36.559 0.0333466 35.603 0 28 0Z" fill="white"/>
<path d="M28 5.04645C35.4808 5.04645 36.3589 5.07979 39.3156 5.21318C42.0501 5.33545 43.5284 5.79119 44.5177 6.18023C45.8293 6.69154 46.763 7.29178 47.7412 8.26995C48.7194 9.24811 49.3307 10.1818 49.8309 11.4934C50.2088 12.4827 50.6757 13.9611 50.798 16.6955C50.9314 19.6522 50.9647 20.5304 50.9647 28.0111C50.9647 35.4919 50.9314 36.37 50.798 39.3267C50.6757 42.0611 50.22 43.5395 49.8309 44.5288C49.3196 45.8404 48.7194 46.7741 47.7412 47.7523C46.763 48.7304 45.8293 49.3418 44.5177 49.842C43.5284 50.2199 42.0501 50.6868 39.3156 50.809C36.3589 50.9424 35.4808 50.9758 28 50.9758C20.5193 50.9758 19.6411 50.9424 16.6844 50.809C13.95 50.6868 12.4716 50.231 11.4823 49.842C10.1707 49.3307 9.23701 48.7304 8.25884 47.7523C7.28067 46.7741 6.66932 45.8404 6.16912 44.5288C5.79119 43.5395 5.32434 42.0611 5.20207 39.3267C5.06868 36.37 5.03533 35.4919 5.03533 28.0111C5.03533 20.5304 5.06868 19.6522 5.20207 16.6955C5.32434 13.9611 5.78008 12.4827 6.16912 11.4934C6.68043 10.1818 7.28067 9.24811 8.25884 8.26995C9.23701 7.29178 10.1707 6.68043 11.4823 6.18023C12.4716 5.8023 13.95 5.33545 16.6844 5.21318C19.6411 5.06868 20.5304 5.04645 28 5.04645Z" fill="white"/>
</g>
<g filter="url(#filter1_d_1_1289)">
<path d="M28.0002 13.6274C20.0637 13.6274 13.6167 20.0633 13.6167 28.0109C13.6167 35.9585 20.0526 42.3944 28.0002 42.3944C35.9478 42.3944 42.3837 35.9585 42.3837 28.0109C42.3837 20.0633 35.9478 13.6274 28.0002 13.6274ZM28.0002 37.3368C22.8426 37.3368 18.6631 33.1574 18.6631 27.9998C18.6631 22.8422 22.8426 18.6628 28.0002 18.6628C33.1578 18.6628 37.3372 22.8422 37.3372 27.9998C37.3372 33.1574 33.1578 37.3368 28.0002 37.3368Z" fill="#140C1D"/>
</g>
<g filter="url(#filter2_d_1_1289)">
<path d="M42.9501 16.4066C44.8041 16.4066 46.307 14.9037 46.307 13.0498C46.307 11.1958 44.8041 9.69287 42.9501 9.69287C41.0962 9.69287 39.5933 11.1958 39.5933 13.0498C39.5933 14.9037 41.0962 16.4066 42.9501 16.4066Z" fill="#140C1D"/>
</g>
</g>
<defs>
<filter id="filter0_d_1_1289" x="-4" y="0" width="64.0225" height="64.0112" filterUnits="userSpaceOnUse" color-interpolation-filters="sRGB">
<feFlood flood-opacity="0" result="BackgroundImageFix"/>
<feColorMatrix in="SourceAlpha" type="matrix" values="0 0 0 0 0 0 0 0 0 0 0 0 0 0 0 0 0 0 127 0" result="hardAlpha"/>
<feOffset dy="4"/>
<feGaussianBlur stdDeviation="2"/>
<feComposite in2="hardAlpha" operator="out"/>
<feColorMatrix type="matrix" values="0 0 0 0 0 0 0 0 0 0 0 0 0 0 0 0 0 0 0.25 0"/>
<feBlend mode="normal" in2="BackgroundImageFix" result="effect1_dropShadow_1_1289"/>
<feBlend mode="normal" in="SourceGraphic" in2="effect1_dropShadow_1_1289" result="shape"/>
</filter>
<filter id="filter1_d_1_1289" x="9.6167" y="13.6274" width="36.7671" height="36.7671" filterUnits="userSpaceOnUse" color-interpolation-filters="sRGB">
<feFlood flood-opacity="0" result="BackgroundImageFix"/>
<feColorMatrix in="SourceAlpha" type="matrix" values="0 0 0 0 0 0 0 0 0 0 0 0 0 0 0 0 0 0 127 0" result="hardAlpha"/>
<feOffset dy="4"/>
<feGaussianBlur stdDeviation="2"/>
<feComposite in2="hardAlpha" operator="out"/>
<feColorMatrix type="matrix" values="0 0 0 0 0 0 0 0 0 0 0 0 0 0 0 0 0 0 0.25 0"/>
<feBlend mode="normal" in2="BackgroundImageFix" result="effect1_dropShadow_1_1289"/>
<feBlend mode="normal" in="SourceGraphic" in2="effect1_dropShadow_1_1289" result="shape"/>
</filter>
<filter id="filter2_d_1_1289" x="35.5933" y="9.69287" width="14.7139" height="14.7139" filterUnits="userSpaceOnUse" color-interpolation-filters="sRGB">
<feFlood flood-opacity="0" result="BackgroundImageFix"/>
<feColorMatrix in="SourceAlpha" type="matrix" values="0 0 0 0 0 0 0 0 0 0 0 0 0 0 0 0 0 0 127 0" result="hardAlpha"/>
<feOffset dy="4"/>
<feGaussianBlur stdDeviation="2"/>
<feComposite in2="hardAlpha" operator="out"/>
<feColorMatrix type="matrix" values="0 0 0 0 0 0 0 0 0 0 0 0 0 0 0 0 0 0 0.25 0"/>
<feBlend mode="normal" in2="BackgroundImageFix" result="effect1_dropShadow_1_1289"/>
<feBlend mode="normal" in="SourceGraphic" in2="effect1_dropShadow_1_1289" result="shape"/>
</filter>
<clipPath id="clip0_1_1289">
<rect width="56" height="56" fill="white"/>
</clipPath>
</defs>
</svg>
