<svg width="40" height="32" viewBox="0 0 40 32" fill="none" xmlns="http://www.w3.org/2000/svg">
<g clip-path="url(#clip0_159_5472)">
<path d="M10 3C10 1.34312 11.3438 0 13 0C14.6562 0 16 1.34312 16 3C16 4.65688 14.6562 6 13 6C11.3438 6 10 4.65688 10 3ZM7.04375 12.8375C6.08812 13.2625 5.33875 14.0375 4.95125 15.0063L4.85687 15.2437C4.44688 16.2687 3.28312 16.7688 2.2575 16.3563C1.23187 15.9438 0.733125 14.7812 1.14313 13.7563L1.2375 13.5188C2.01187 11.5875 3.51125 10.0312 5.41625 9.18125L6.10375 8.875C7.40625 8.3 8.75625 8 10.2312 8C13.0187 8 15.5312 9.675 16.6 12.2437L17.5063 14.5437L18.8937 15.2125C19.8812 15.7062 20.2812 16.9062 19.7875 17.8937C19.2938 18.8812 18.0938 19.2812 17.1063 18.7875L15.4375 17.9562C14.7937 17.6312 14.2875 17.0875 14.0125 16.425L13.4125 14.9875L12.2063 19.0812L15.3 22.4625C15.6375 22.8312 15.8813 23.275 16 23.7625L17.4375 29.5125C17.7062 30.5875 17.0562 31.675 15.9875 31.9375C14.9125 32.2062 13.825 31.5562 13.5063 30.4875L12.1812 24.975L7.76875 20.1562C6.84375 19.15 6.44375 17.7437 6.85 16.425L7.90625 12.4563C7.85 12.4812 7.7875 12.5063 7.73125 12.5312L7.04375 12.8375ZM6.29375 21.5125L8.8375 24.2875L7.93125 26.55C7.78125 26.9312 7.55625 27.275 7.26875 27.5562L3.41438 31.4125C2.63313 32.1937 1.36687 32.1937 0.58575 31.4125C-0.19525 30.6313 -0.19525 29.3687 0.58575 28.5875L4.29563 24.875L5.85563 20.975C5.99 21.1625 6.13562 21.3375 6.29375 21.5125ZM39.4125 14.5875C40.1937 15.3687 40.1937 16.6313 39.4125 17.4125L34.4125 22.4125C33.6312 23.1938 32.3688 23.1938 31.5875 22.4125C30.8062 21.6313 30.8062 20.3687 31.5875 19.5875L33.1688 18H24C22.8937 18 22 17.1063 22 16C22 14.8938 22.8937 14 24 14H33.1688L31.5875 12.4125C30.8062 11.6313 30.8062 10.3687 31.5875 9.5875C32.3688 8.80625 33.6312 8.80625 34.4125 9.5875L39.4125 14.5875Z" fill="#30CFD0"/>
</g>
<defs>
<clipPath id="clip0_159_5472">
<rect width="40" height="32" fill="white"/>
</clipPath>
</defs>
</svg>
