<svg width="32" height="28" viewBox="0 0 32 28" fill="none" xmlns="http://www.w3.org/2000/svg">
<path d="M26 0H22C20.8956 0 20 0.895625 20 2C20 3.10437 20.8956 4 22 4H26C27.1044 4 28 4.89563 28 6V22C28 23.1044 27.1044 24 26 24H22C20.8956 24 20 24.8956 20 26C20 27.1044 20.8956 28 22 28H26C29.3137 28 32 25.3137 32 22V6C32 2.68625 29.3125 0 26 0ZM21.4125 12.5875L13.4125 4.5875C12.6306 3.80562 11.365 3.80688 10.5844 4.5875C9.80313 5.36875 9.80313 6.63437 10.5844 7.41562L15.175 12H2C0.894375 12 0 12.8938 0 14C0 15.1062 0.894375 16 2 16H15.175L10.5887 20.5863C9.8075 21.3675 9.8075 22.6331 10.5887 23.4144C11.37 24.1956 12.6356 24.1956 13.4169 23.4144L21.4169 15.4144C22.1938 14.6313 22.1938 13.3687 21.4125 12.5875Z" fill="#89858E"/>
</svg>
