<svg width="540" height="540" viewBox="0 0 540 540" fill="none" xmlns="http://www.w3.org/2000/svg">
<path d="M539.367 21.8531C527.101 62.7223 503.107 139.767 474.63 219.923C482.013 222.165 488.742 224.142 494.279 225.856C499.157 227.306 503.112 230.867 504.963 235.482C506.941 240.228 506.677 245.503 504.304 249.984C480.964 294.545 417.155 411.14 354.011 476.109C352.956 477.296 351.901 478.746 350.846 479.801C270.69 560.094 140.541 560.094 60.2796 479.932C-20.0138 399.639 -20.0138 269.522 60.2796 189.155C61.3343 188.1 62.7845 187.046 63.971 185.991C128.777 122.871 245.215 59.0309 289.09 35.6906C293.572 33.3176 298.846 33.0539 303.465 35.0315C308.211 37.009 311.771 40.9651 313.221 45.7154C314.935 51.1207 316.913 57.9815 319.154 65.3643C399.183 36.8877 476.197 12.8936 517.013 0.764663C523.078 -1.08104 529.543 0.500675 534.025 4.98341C539.473 9.32767 540.105 15.9152 539.367 21.8531ZM336.551 336.551C336.551 262.058 276.033 201.551 201.551 201.551C126.932 201.551 66.5508 262.069 66.5508 336.551C66.5508 411.18 126.932 471.551 201.551 471.551C276.961 472.5 336.551 412.172 336.551 336.551ZM201.551 302.801C201.551 321.395 186.395 336.551 167.801 336.551C149.08 336.551 134.051 321.384 134.051 302.801C134.051 284.217 149.08 269.051 167.801 269.051C176.766 269.051 185.34 272.61 191.668 278.939C197.996 285.267 201.551 294.785 201.551 302.801ZM236.145 387.176C236.145 396.537 228.525 404.051 219.301 404.051C209.941 404.051 202.426 396.534 202.426 387.176C202.426 377.814 209.914 370.301 219.28 370.301C228.551 370.301 236.145 378.738 236.145 387.176Z" fill="url(#paint0_linear_1_1549)" fill-opacity="0.1"/>
<defs>
<linearGradient id="paint0_linear_1_1549" x1="0.0595676" y1="273.529" x2="539.619" y2="273.53" gradientUnits="userSpaceOnUse">
<stop stop-color="#330867"/>
<stop offset="1" stop-color="#30CFD0"/>
</linearGradient>
</defs>
</svg>
