<svg width="32" height="32" viewBox="0 0 32 32" fill="none" xmlns="http://www.w3.org/2000/svg">
<path d="M31.2689 27.7313L23.7877 20.25C25.4889 17.7244 26.3283 14.5688 25.8789 11.2063C25.1127 5.4869 20.4252 0.832524 14.7002 0.107712C6.1883 -0.969351 -0.969203 6.18815 0.107922 14.7C0.832922 20.4275 5.48792 25.1188 11.2079 25.8813C14.5704 26.3306 17.7267 25.4915 20.2517 23.79L27.7329 31.2713C28.7092 32.2475 30.2923 32.2475 31.2685 31.2713C32.2439 30.2938 32.2439 28.7063 31.2689 27.7313ZM4.94392 13C4.94392 8.58877 8.53267 5.00002 12.9439 5.00002C17.3552 5.00002 20.9439 8.58877 20.9439 13C20.9439 17.4113 17.3552 21 12.9439 21C8.53267 21 4.94392 17.4125 4.94392 13Z" fill="#4F4955"/>
</svg>
