<svg width="22" height="19" viewBox="0 0 22 19" fill="none" xmlns="http://www.w3.org/2000/svg">
<path d="M21.226 10.0605L13.726 17.5605C13.4354 17.8559 13.051 18.0012 12.6667 18.0012C12.2823 18.0012 11.8989 17.8547 11.6064 17.5617C11.0204 16.9758 11.0204 16.0266 11.6064 15.4406L16.5479 10.5012H2.16667C1.33839 10.5012 0.666748 9.83086 0.666748 9.00117C0.666748 8.17148 1.33839 7.50117 2.16667 7.50117H16.5479L11.6073 2.56055C11.0214 1.97461 11.0214 1.02539 11.6073 0.439453C12.1932 -0.146484 13.1425 -0.146484 13.7284 0.439453L21.2284 7.93945C21.812 8.52773 21.812 9.47461 21.226 10.0605Z" fill="#140C1D"/>
</svg>
