<svg width="87" height="40" viewBox="0 0 87 40" fill="none" xmlns="http://www.w3.org/2000/svg">
<path d="M28.464 26L30.408 16.712H32.748L35.016 26H33.54L31.272 16.748H31.848L29.886 26H28.464ZM27.582 26V24.632H29.58V26H27.582ZM27.186 26L24.468 16.388H26.124L28.77 26H27.186ZM33.9 26V24.632H35.898V26H33.9ZM34.71 26L37.014 16.388H38.58L36.222 26H34.71ZM44.824 26.324C43.984 26.324 43.258 26.18 42.646 25.892C42.034 25.604 41.536 25.226 41.152 24.758C40.768 24.278 40.48 23.744 40.288 23.156C40.108 22.568 40.018 21.968 40.018 21.356V21.032C40.018 20.408 40.108 19.802 40.288 19.214C40.48 18.626 40.768 18.098 41.152 17.63C41.536 17.15 42.022 16.772 42.61 16.496C43.21 16.208 43.912 16.064 44.716 16.064C45.76 16.064 46.618 16.292 47.29 16.748C47.974 17.192 48.478 17.768 48.802 18.476C49.138 19.184 49.306 19.94 49.306 20.744V21.518H40.774V20.222H48.046L47.65 20.924C47.65 20.24 47.542 19.652 47.326 19.16C47.11 18.656 46.786 18.266 46.354 17.99C45.922 17.714 45.376 17.576 44.716 17.576C44.032 17.576 43.462 17.732 43.006 18.044C42.562 18.356 42.226 18.782 41.998 19.322C41.782 19.862 41.674 20.486 41.674 21.194C41.674 21.878 41.782 22.496 41.998 23.048C42.226 23.588 42.574 24.02 43.042 24.344C43.51 24.656 44.104 24.812 44.824 24.812C45.58 24.812 46.192 24.644 46.66 24.308C47.14 23.972 47.428 23.582 47.524 23.138H49.144C49.012 23.798 48.748 24.368 48.352 24.848C47.956 25.328 47.458 25.694 46.858 25.946C46.258 26.198 45.58 26.324 44.824 26.324ZM56.8355 26.324C56.0435 26.324 55.3355 26.15 54.7115 25.802C54.0995 25.454 53.6135 24.95 53.2535 24.29C52.8935 23.618 52.6955 22.814 52.6595 21.878H53.1275V26H51.7595V12.86H53.4875V19.25L52.8755 20.564C52.9235 19.52 53.1335 18.668 53.5055 18.008C53.8775 17.348 54.3635 16.862 54.9635 16.55C55.5755 16.226 56.2475 16.064 56.9795 16.064C57.6635 16.064 58.2875 16.196 58.8515 16.46C59.4155 16.712 59.9015 17.066 60.3095 17.522C60.7175 17.966 61.0295 18.488 61.2455 19.088C61.4615 19.676 61.5695 20.312 61.5695 20.996V21.32C61.5695 22.004 61.4555 22.646 61.2275 23.246C61.0115 23.846 60.6935 24.38 60.2735 24.848C59.8535 25.304 59.3495 25.664 58.7615 25.928C58.1855 26.192 57.5435 26.324 56.8355 26.324ZM56.6375 24.812C57.2855 24.812 57.8495 24.656 58.3295 24.344C58.8095 24.032 59.1815 23.606 59.4455 23.066C59.7095 22.514 59.8415 21.878 59.8415 21.158C59.8415 20.438 59.7035 19.808 59.4275 19.268C59.1635 18.728 58.7915 18.314 58.3115 18.026C57.8315 17.726 57.2735 17.576 56.6375 17.576C56.0615 17.576 55.5275 17.708 55.0355 17.972C54.5435 18.224 54.1475 18.596 53.8475 19.088C53.5595 19.568 53.4155 20.15 53.4155 20.834V21.662C53.4155 22.322 53.5655 22.886 53.8655 23.354C54.1655 23.822 54.5615 24.182 55.0535 24.434C55.5455 24.686 56.0735 24.812 56.6375 24.812Z" fill="white"/>
<rect x="0.5" y="0.5" width="86" height="39" rx="7.5" stroke="white"/>
</svg>
