<svg width="114" height="40" viewBox="0 0 114 40" fill="none" xmlns="http://www.w3.org/2000/svg">
<path d="M25.656 29.6V16.388H27.024V20.546L26.7 20.51C26.76 19.478 26.976 18.638 27.348 17.99C27.732 17.33 28.23 16.844 28.842 16.532C29.454 16.22 30.12 16.064 30.84 16.064C31.536 16.064 32.166 16.196 32.73 16.46C33.306 16.724 33.798 17.084 34.206 17.54C34.614 17.996 34.926 18.524 35.142 19.124C35.358 19.724 35.466 20.36 35.466 21.032V21.356C35.466 22.028 35.352 22.664 35.124 23.264C34.896 23.864 34.572 24.392 34.152 24.848C33.744 25.304 33.252 25.664 32.676 25.928C32.112 26.192 31.488 26.324 30.804 26.324C30.12 26.324 29.466 26.174 28.842 25.874C28.218 25.574 27.702 25.088 27.294 24.416C26.886 23.744 26.652 22.862 26.592 21.77L27.384 23.21V29.6H25.656ZM30.534 24.812C31.182 24.812 31.746 24.662 32.226 24.362C32.706 24.05 33.078 23.624 33.342 23.084C33.606 22.532 33.738 21.902 33.738 21.194C33.738 20.474 33.606 19.844 33.342 19.304C33.078 18.764 32.706 18.344 32.226 18.044C31.746 17.732 31.182 17.576 30.534 17.576C29.958 17.576 29.424 17.708 28.932 17.972C28.44 18.224 28.044 18.596 27.744 19.088C27.456 19.568 27.312 20.15 27.312 20.834V21.662C27.312 22.322 27.462 22.886 27.762 23.354C28.062 23.822 28.458 24.182 28.95 24.434C29.442 24.686 29.97 24.812 30.534 24.812ZM37.2424 29.744V28.196H38.6284C39.0364 28.196 39.3784 28.142 39.6544 28.034C39.9424 27.938 40.1764 27.77 40.3564 27.53C40.5484 27.29 40.7044 26.972 40.8244 26.576L43.8484 16.388H45.5404L42.3364 27.026C42.1444 27.662 41.8744 28.178 41.5264 28.574C41.1784 28.982 40.7524 29.276 40.2484 29.456C39.7564 29.648 39.1804 29.744 38.5204 29.744H37.2424ZM40.1764 25.784V24.344H42.2644V25.784H40.1764ZM39.9964 25.784L36.5584 16.388H38.3224L41.6164 25.784H39.9964ZM51.6539 26.108C50.9339 26.108 50.3099 26.006 49.7819 25.802C49.2659 25.598 48.8639 25.25 48.5759 24.758C48.2999 24.254 48.1619 23.576 48.1619 22.724V13.472H49.8179V22.94C49.8179 23.456 49.9559 23.858 50.2319 24.146C50.5199 24.422 50.9219 24.56 51.4379 24.56H53.1299V26.108H51.6539ZM46.5059 17.684V16.388H53.1299V17.684H46.5059ZM55.574 26V12.86H57.302V20.708H56.87C56.87 19.76 56.99 18.944 57.23 18.26C57.482 17.564 57.866 17.03 58.382 16.658C58.898 16.286 59.558 16.1 60.362 16.1H60.434C61.586 16.1 62.456 16.484 63.044 17.252C63.632 18.008 63.926 19.094 63.926 20.51V26H62.198V20.15C62.198 19.37 61.976 18.764 61.532 18.332C61.1 17.9 60.536 17.684 59.84 17.684C59.072 17.684 58.454 17.942 57.986 18.458C57.53 18.962 57.302 19.628 57.302 20.456V26H55.574ZM71.5156 26.324C70.6756 26.324 69.9376 26.18 69.3016 25.892C68.6656 25.604 68.1256 25.226 67.6816 24.758C67.2496 24.278 66.9196 23.744 66.6916 23.156C66.4756 22.568 66.3676 21.968 66.3676 21.356V21.032C66.3676 20.42 66.4816 19.82 66.7096 19.232C66.9376 18.632 67.2736 18.098 67.7176 17.63C68.1616 17.15 68.7016 16.772 69.3376 16.496C69.9736 16.208 70.6996 16.064 71.5156 16.064C72.3316 16.064 73.0576 16.208 73.6936 16.496C74.3296 16.772 74.8696 17.15 75.3136 17.63C75.7576 18.098 76.0936 18.632 76.3216 19.232C76.5496 19.82 76.6636 20.42 76.6636 21.032V21.356C76.6636 21.968 76.5496 22.568 76.3216 23.156C76.1056 23.744 75.7756 24.278 75.3316 24.758C74.8996 25.226 74.3656 25.604 73.7296 25.892C73.0936 26.18 72.3556 26.324 71.5156 26.324ZM71.5156 24.776C72.2356 24.776 72.8476 24.62 73.3516 24.308C73.8676 23.984 74.2576 23.552 74.5216 23.012C74.7976 22.472 74.9356 21.866 74.9356 21.194C74.9356 20.51 74.7976 19.898 74.5216 19.358C74.2456 18.818 73.8496 18.392 73.3336 18.08C72.8296 17.768 72.2236 17.612 71.5156 17.612C70.8196 17.612 70.2136 17.768 69.6976 18.08C69.1816 18.392 68.7856 18.818 68.5096 19.358C68.2336 19.898 68.0956 20.51 68.0956 21.194C68.0956 21.866 68.2276 22.472 68.4916 23.012C68.7676 23.552 69.1576 23.984 69.6616 24.308C70.1776 24.62 70.7956 24.776 71.5156 24.776ZM79.2517 26V16.388H80.6197V20.51H80.4037C80.4037 19.562 80.5297 18.764 80.7817 18.116C81.0457 17.456 81.4417 16.958 81.9697 16.622C82.4977 16.274 83.1637 16.1 83.9677 16.1H84.0397C85.2517 16.1 86.1457 16.478 86.7217 17.234C87.3097 17.99 87.6037 19.082 87.6037 20.51V26H85.8757V20.15C85.8757 19.406 85.6657 18.812 85.2457 18.368C84.8257 17.912 84.2497 17.684 83.5177 17.684C82.7617 17.684 82.1497 17.918 81.6817 18.386C81.2137 18.854 80.9797 19.478 80.9797 20.258V26H79.2517Z" fill="white"/>
<rect x="0.5" y="0.5" width="113" height="39" rx="7.5" stroke="white"/>
</svg>
