<svg width="56" height="56" viewBox="0 0 56 56" fill="none" xmlns="http://www.w3.org/2000/svg">
<g clip-path="url(#clip0_1_1288)">
<path d="M0 26.88C0 14.2086 0 7.87297 3.93648 3.93648C7.87297 0 14.2086 0 26.88 0H29.12C41.7914 0 48.127 0 52.0635 3.93648C56 7.87297 56 14.2086 56 26.88V29.12C56 41.7914 56 48.127 52.0635 52.0635C48.127 56 41.7914 56 29.12 56H26.88C14.2086 56 7.87297 56 3.93648 52.0635C0 48.127 0 41.7914 0 29.12V26.88Z" fill="white"/>
<path d="M29.7005 40.3198C16.69 40.3198 9.26917 31.491 8.95996 16.7998H15.4771C15.6912 27.5827 20.4956 32.1502 24.3013 33.0919V16.7998H30.4381V26.0995C34.1961 25.6993 38.144 21.4614 39.4759 16.7998H45.6126C44.5899 22.5444 40.3085 26.7823 37.264 28.5245C40.3085 29.9371 45.1847 33.6334 47.04 40.3198H40.2847C38.8339 35.8465 35.2189 32.3856 30.4381 31.9148V40.3198H29.7005Z" fill="#140C1D"/>
</g>
<defs>
<clipPath id="clip0_1_1288">
<rect width="56" height="56" fill="white"/>
</clipPath>
</defs>
</svg>
